<svg width="69" height="69" viewBox="0 0 69 69" fill="none" xmlns="http://www.w3.org/2000/svg">
<path fill-rule="evenodd" clip-rule="evenodd" d="M34.5 0C15.4462 0 0 15.4462 0 34.5C0 53.5538 15.4462 69 34.5 69C53.5538 69 69 53.5538 69 34.5C69 15.4462 53.5538 0 34.5 0ZM26.9147 16.2112C28.8774 16.1219 29.5045 16.1 34.5017 16.1H34.496C39.4947 16.1 40.1195 16.1219 42.0822 16.2112C44.0411 16.3009 45.3789 16.611 46.5519 17.066C47.7633 17.5356 48.7868 18.1643 49.8103 19.1878C50.8338 20.2105 51.4625 21.2371 51.934 22.4473C52.3863 23.6172 52.6968 24.9543 52.7888 26.9132C52.877 28.8759 52.9 29.503 52.9 34.5002C52.9 39.4974 52.877 40.123 52.7888 42.0857C52.6968 44.0437 52.3863 45.3812 51.934 46.5515C51.4625 47.7613 50.8338 48.7879 49.8103 49.8107C48.7879 50.8342 47.7629 51.4644 46.5531 51.9344C45.3824 52.3894 44.0438 52.6995 42.0849 52.7892C40.1222 52.8785 39.497 52.9004 34.4994 52.9004C29.5026 52.9004 28.8759 52.8785 26.9132 52.7892C24.9547 52.6995 23.6172 52.3894 22.4465 51.9344C21.2371 51.4644 20.2105 50.8342 19.1882 49.8107C18.165 48.7879 17.5364 47.7613 17.066 46.5512C16.6114 45.3812 16.3013 44.0441 16.2112 42.0853C16.1222 40.1226 16.1 39.4974 16.1 34.5002C16.1 29.503 16.123 28.8755 16.2108 26.9128C16.299 24.9547 16.6095 23.6172 17.0656 22.4469C17.5371 21.2371 18.1658 20.2105 19.1893 19.1878C20.2121 18.1647 21.2386 17.536 22.4488 17.066C23.6188 16.611 24.9559 16.3009 26.9147 16.2112Z" fill="white"/>
<path fill-rule="evenodd" clip-rule="evenodd" d="M32.8512 19.4157C33.1717 19.4152 33.5165 19.4154 33.8885 19.4156L34.5018 19.4157C39.4146 19.4157 39.9969 19.4334 41.937 19.5215C43.731 19.6036 44.7047 19.9033 45.3533 20.1552C46.212 20.4887 46.8242 20.8874 47.4678 21.5314C48.1118 22.1754 48.5105 22.7887 48.8447 23.6474C49.0966 24.2952 49.3968 25.2689 49.4784 27.0629C49.5666 29.0026 49.5857 29.5853 49.5857 34.4958C49.5857 39.4064 49.5666 39.9891 49.4784 41.9287C49.3964 43.7228 49.0966 44.6964 48.8447 45.3443C48.5112 46.203 48.1118 46.8144 47.4678 47.458C46.8238 48.102 46.2124 48.5007 45.3533 48.8342C44.7055 49.0872 43.731 49.3862 41.937 49.4682C39.9973 49.5564 39.4146 49.5756 34.5018 49.5756C29.5886 49.5756 29.0063 49.5564 27.0666 49.4682C25.2726 49.3854 24.2989 49.0857 23.6499 48.8338C22.7912 48.5003 22.1779 48.1016 21.5339 47.4576C20.8899 46.8136 20.4912 46.2018 20.1569 45.3428C19.9051 44.6949 19.6049 43.7212 19.5233 41.9272C19.4351 39.9875 19.4175 39.4049 19.4175 34.4912C19.4175 29.5776 19.4351 28.998 19.5233 27.0583C19.6053 25.2643 19.9051 24.2906 20.1569 23.642C20.4904 22.7834 20.8899 22.17 21.5339 21.526C22.1779 20.882 22.7912 20.4833 23.6499 20.1491C24.2985 19.8961 25.2726 19.5971 27.0666 19.5146C28.764 19.438 29.4218 19.415 32.8512 19.4111V19.4157ZM44.3237 22.4709C43.1047 22.4709 42.1157 23.4588 42.1157 24.6782C42.1157 25.8972 43.1047 26.8862 44.3237 26.8862C45.5427 26.8862 46.5317 25.8972 46.5317 24.6782C46.5317 23.4592 45.5427 22.4702 44.3237 22.4702V22.4709ZM25.0525 34.5001C25.0525 29.2817 29.2834 25.0508 34.5018 25.0508H34.5014C39.7198 25.0508 43.9495 29.2817 43.9495 34.5001C43.9495 39.7184 39.7202 43.9474 34.5018 43.9474C29.2834 43.9474 25.0525 39.7184 25.0525 34.5001Z" fill="white"/>
<path d="M34.5018 28.3667C37.889 28.3667 40.6352 31.1125 40.6352 34.5001C40.6352 37.8873 37.889 40.6335 34.5018 40.6335C31.1143 40.6335 28.3684 37.8873 28.3684 34.5001C28.3684 31.1125 31.1143 28.3667 34.5018 28.3667V28.3667Z" fill="white"/>
</svg>
