<svg width="69" height="69" viewBox="0 0 69 69" fill="none" xmlns="http://www.w3.org/2000/svg">
<path fill-rule="evenodd" clip-rule="evenodd" d="M0 34.5C0 53.5538 15.4462 69 34.5 69C53.5538 69 69 53.5538 69 34.5C69 15.4462 53.5538 0 34.5 0C15.4462 0 0 15.4462 0 34.5ZM56.1518 33.1797C56.1473 44.4881 46.948 53.6896 35.6372 53.6942H35.6287C32.1953 53.6931 28.8216 52.8316 25.8252 51.1972L14.95 54.05L17.8604 43.4195C16.0651 40.3083 15.1205 36.7791 15.122 33.1635C15.1265 21.8524 24.3294 12.65 35.637 12.65C41.1249 12.6524 46.2757 14.7888 50.1489 18.6665C54.0221 22.5441 56.154 27.6982 56.1518 33.1797Z" fill="white"/>
<path fill-rule="evenodd" clip-rule="evenodd" d="M19.8756 49.1764L26.3291 47.4836L26.9517 47.8531C29.5696 49.4066 32.5706 50.2287 35.6303 50.2298H35.6372C45.0352 50.2298 52.6843 42.5806 52.688 33.1787C52.6898 28.6226 50.9179 24.3387 47.6986 21.1156C44.4794 17.8926 40.1982 16.1168 35.6439 16.1152C26.2386 16.1152 18.5894 23.7637 18.5857 33.1649C18.5844 36.3868 19.4858 39.5245 21.1927 42.2392L21.5981 42.8843L19.8756 49.1764ZM45.2703 37.5967C45.6279 37.7695 45.8693 37.8861 45.9724 38.0582C46.1005 38.272 46.1005 39.2983 45.6735 40.4958C45.2462 41.6932 43.1984 42.786 42.2135 42.9331C41.3304 43.0651 40.2128 43.1202 38.9849 42.7299C38.2404 42.4937 37.2857 42.1784 36.0627 41.6502C31.2572 39.5752 28.0097 34.9177 27.396 34.0374C27.353 33.9757 27.3229 33.9326 27.3061 33.9102L27.302 33.9047C27.0307 33.5427 25.2131 31.1176 25.2131 28.6076C25.2131 26.2465 26.3729 25.0089 26.9068 24.4392C26.9433 24.4002 26.977 24.3643 27.0071 24.3314C27.4769 23.8182 28.0323 23.6899 28.374 23.6899C28.7157 23.6899 29.0578 23.693 29.3564 23.708C29.3933 23.7099 29.4316 23.7097 29.4713 23.7094C29.77 23.7077 30.1424 23.7055 30.5098 24.588C30.6511 24.9276 30.8579 25.431 31.076 25.9621C31.5171 27.0359 32.0044 28.2223 32.0902 28.394C32.2184 28.6506 32.3038 28.9499 32.1329 29.2921C32.1073 29.3434 32.0835 29.3919 32.0609 29.4381C31.9325 29.7001 31.8381 29.8928 31.6203 30.1472C31.5347 30.2472 31.4462 30.355 31.3576 30.4628C31.1813 30.6775 31.005 30.8923 30.8514 31.0452C30.5948 31.3008 30.3277 31.5782 30.6267 32.0913C30.9257 32.6045 31.9544 34.283 33.4783 35.6423C35.1164 37.1034 36.54 37.7209 37.2617 38.034C37.4026 38.0951 37.5168 38.1446 37.6005 38.1865C38.1129 38.4432 38.4119 38.4002 38.711 38.0582C39.01 37.7161 39.9924 36.5614 40.334 36.0483C40.6757 35.5353 41.0175 35.6208 41.4873 35.7918C41.9573 35.963 44.4774 37.2029 44.99 37.4595C45.0901 37.5096 45.1836 37.5548 45.2703 37.5967Z" fill="white"/>
</svg>
